<svg width="236" height="44" viewBox="0 0 236 44" fill="none" xmlns="http://www.w3.org/2000/svg">
<path d="M17.2688 36.3724C14.8943 36.3724 12.6638 35.9047 10.5771 34.9693C8.49049 34.0339 6.65568 32.7567 5.07271 31.1378C3.48973 29.4829 2.24854 27.5941 1.34912 25.4715C0.449708 23.3129 0 21.0283 0 18.6179C0 16.0636 0.449708 13.6711 1.34912 11.4406C2.24854 9.17404 3.48973 7.19533 5.07271 5.50443C6.69166 3.77755 8.58043 2.42842 10.739 1.45705C12.9336 0.485685 15.2901 0 17.8084 0C19.7872 0 21.8018 0.143907 23.8525 0.43172C25.9032 0.683556 28.0078 1.06131 30.1664 1.56498C30.3823 1.63694 30.6161 2.84215 30.868 5.18064C31.0119 6.51177 31.1198 7.55509 31.1917 8.3106C31.2997 9.06611 31.2637 9.60576 31.0838 9.92955C30.9039 10.2174 30.4722 10.3613 29.7887 10.3613L28.9252 10.1994C28.7453 9.5518 28.4575 8.86824 28.0618 8.14871C27.666 7.42918 27.0544 6.65568 26.227 5.82822C25.4355 5.00075 24.3202 4.33519 22.8811 3.83151C21.4421 3.29186 19.8411 3.02204 18.0783 3.02204C11.6384 3.02204 8.41853 7.84291 8.41853 17.4846C8.41853 20.4707 8.85025 23.1869 9.71369 25.6334C10.6131 28.0438 11.9083 29.9506 13.5992 31.3536C15.326 32.7567 17.3947 33.4583 19.8051 33.4583C22.4674 33.4583 24.7699 32.4869 26.7127 30.5442C27.2883 29.9685 27.72 29.321 28.0078 28.6014C28.3316 27.8459 28.5655 27.1804 28.7094 26.6047C28.8892 26.0291 29.0511 25.7413 29.195 25.7413C30.6701 25.7413 31.4796 25.9212 31.6235 26.2809C31.6235 26.5328 31.5335 27.0724 31.3536 27.8999C31.2097 28.6914 31.0119 29.5728 30.76 30.5442C30.5442 31.4796 30.3103 32.307 30.0585 33.0266C29.8066 33.7101 29.5908 34.0879 29.4109 34.1598C25.3096 35.6349 21.2622 36.3724 17.2688 36.3724Z" fill="#D8535E"/>
<path d="M34.6995 36.2105C34.5556 36.0666 34.4836 35.7608 34.4836 35.2931C34.4836 34.5736 34.5556 34.2138 34.6995 34.2138C34.9873 34.2138 35.401 34.1598 35.9407 34.0519C36.4803 33.944 36.984 33.8 37.4517 33.6202C37.9194 33.4043 38.1892 33.2064 38.2612 33.0266C38.477 32.1991 38.5849 30.6161 38.5849 28.2776V7.66302C38.5849 5.46845 38.441 4.11933 38.1532 3.61565C38.0453 3.39979 37.7575 3.20192 37.2898 3.02204C36.8581 2.80618 36.4084 2.62629 35.9407 2.48239C35.473 2.33848 35.0952 2.26653 34.8074 2.26653C34.6635 2.26653 34.5915 1.96073 34.5915 1.34912C34.5915 0.701544 34.6275 0.341778 34.6995 0.269825L42.5244 0.593615C42.8842 0.629591 43.6936 0.611603 44.9528 0.53965C46.212 0.467696 47.9209 0.377755 50.0795 0.269825C50.1874 0.593615 50.2414 0.917404 50.2414 1.24119C50.2414 1.92475 50.1694 2.26653 50.0255 2.26653C49.8097 2.26653 49.4319 2.33848 48.8923 2.48239C48.3526 2.62629 47.8309 2.80618 47.3273 3.02204C46.8596 3.20192 46.5897 3.3818 46.5178 3.56169C46.3739 4.02938 46.266 4.64099 46.194 5.3965C46.158 6.11603 46.14 6.94349 46.14 7.87888V28.3316C46.14 30.0585 46.2839 31.3536 46.5718 32.2171C46.7157 32.7927 47.9389 33.0805 50.2414 33.0805H51.6445C53.875 33.0805 55.8897 32.6128 57.6885 31.6774C58.3001 31.3536 58.9837 30.742 59.7392 29.8426C60.5307 28.9432 61.1423 27.9359 61.574 26.8206C61.646 26.6047 61.8978 26.4968 62.3295 26.4968C63.193 26.4968 63.7326 26.6047 63.9485 26.8206C62.1496 31.7854 61.1783 34.8794 61.0344 36.1026C60.027 36.1026 58.7139 36.0846 57.0949 36.0486C55.512 36.0486 53.6232 36.0306 51.4286 35.9946C49.234 35.9586 47.3992 35.9227 45.9242 35.8867C44.4851 35.8507 43.3698 35.8507 42.5784 35.8867L34.6995 36.2105Z" fill="#D8535E"/>
<path d="M66.9705 36.2105C66.8266 36.0666 66.7546 35.7788 66.7546 35.347C66.7546 34.5915 66.8086 34.2138 66.9165 34.2138C67.2044 34.2138 67.6181 34.1418 68.1577 33.9979C68.6974 33.854 69.2011 33.6741 69.6688 33.4583C70.1365 33.2424 70.4063 33.0445 70.4782 32.8647C70.6221 32.361 70.7121 31.7494 70.7481 31.0299C70.82 30.3103 70.856 29.4829 70.856 28.5475V7.82492C70.856 5.52241 70.7121 4.11933 70.4243 3.61565C70.3163 3.39979 70.0285 3.20192 69.5608 3.02204C69.1291 2.80618 68.6794 2.62629 68.2117 2.48239C67.744 2.33848 67.3662 2.26653 67.0784 2.26653C66.9345 2.26653 66.8626 1.96073 66.8626 1.34912C66.8626 0.701544 66.8986 0.341778 66.9705 0.269825L69.5608 0.43172C70.3523 0.503673 70.9999 0.557638 71.5036 0.593615C72.0072 0.629591 72.4929 0.647579 72.9606 0.647579C73.4643 0.611603 74.0759 0.593615 74.7954 0.593615C75.515 0.593615 78.0333 0.485685 82.3505 0.269825C82.4585 0.593615 82.5124 0.917404 82.5124 1.24119C82.5124 1.92475 82.4405 2.26653 82.2966 2.26653C82.0807 2.26653 81.7029 2.33848 81.1633 2.48239C80.6236 2.62629 80.102 2.80618 79.5983 3.02204C79.1306 3.20192 78.8608 3.3818 78.7888 3.56169C78.6809 3.99341 78.591 4.60501 78.519 5.3965C78.4471 6.15201 78.4111 6.79958 78.4111 7.33923V28.1157C78.4111 29.1231 78.4471 30.0225 78.519 30.814C78.591 31.6055 78.6989 32.289 78.8428 32.8647C78.9147 33.0086 79.1666 33.1884 79.5983 33.4043C80.066 33.6202 80.5517 33.818 81.0554 33.9979C81.595 34.1418 81.9728 34.2138 82.1886 34.2138C82.3325 34.2138 82.4045 34.5556 82.4045 35.2391C82.4045 35.5989 82.3685 35.9227 82.2966 36.2105C82.1526 36.2105 81.8109 36.1925 81.2712 36.1565C80.7316 36.1205 79.9941 36.0666 79.0587 35.9946C78.1233 35.9227 77.2958 35.8687 76.5763 35.8327C75.8567 35.7968 75.2631 35.7788 74.7954 35.7788C74.1478 35.7788 73.2664 35.8147 72.1511 35.8867C71.0359 35.9586 69.9746 36.0126 68.9672 36.0486C67.9958 36.1205 67.3303 36.1745 66.9705 36.2105Z" fill="#D8535E"/>
<path d="M117.913 36.2645C117.518 36.2645 116.96 35.8507 116.241 35.0233L94.2768 7.71699V28.3856C94.2768 30.2923 94.4207 31.5695 94.7085 32.2171C94.9244 32.6128 95.3561 32.9726 96.0037 33.2964C96.6512 33.5842 97.3168 33.8001 98.0004 33.944C98.6839 34.0879 99.2056 34.1598 99.5653 34.1598C99.6373 34.1598 99.6913 34.3217 99.7272 34.6455C99.7632 34.9333 99.7812 35.2391 99.7812 35.5629C99.7812 35.8867 99.7452 36.1026 99.6733 36.2105C97.9464 36.2105 96.4714 36.1385 95.2481 35.9946C94.0609 35.8507 93.1075 35.7788 92.388 35.7788C91.5246 35.7788 90.841 35.7968 90.3373 35.8327C89.8337 35.8687 89.258 35.9227 88.6105 35.9946C87.9989 36.0666 87.0275 36.1385 85.6964 36.2105C85.5884 36.1026 85.5345 35.7788 85.5345 35.2391C85.5345 34.5556 85.5884 34.2138 85.6964 34.2138C86.5238 34.2138 87.3873 34.0519 88.2867 33.7281C89.2221 33.3683 89.8876 32.8467 90.2834 32.1631C90.6431 31.5875 90.823 30.2743 90.823 28.2237V7.01544C90.823 5.14466 90.5532 3.86749 90.0135 3.18393C89.9056 3.00405 89.5638 2.86014 88.9882 2.75221C88.4486 2.60831 87.8549 2.50038 87.2074 2.42842C86.5958 2.32049 86.1101 2.26653 85.7503 2.26653C85.6784 2.26653 85.6064 2.12262 85.5345 1.83481C85.4985 1.547 85.4805 1.24119 85.4805 0.917404C85.5165 0.557638 85.5704 0.341778 85.6424 0.269825L89.0961 0.485685C89.9236 0.557638 90.6611 0.611603 91.3087 0.647579C91.9923 0.683556 92.5679 0.701544 93.0356 0.701544C93.6472 0.701544 94.3847 0.665568 95.2481 0.593615C96.1476 0.521661 97.1729 0.413731 98.3242 0.269825C99.0437 1.70889 100.033 3.29186 101.292 5.01874C102.587 6.74562 104.026 8.58043 105.609 10.5232C107.228 12.4299 108.883 14.4086 110.574 16.4593C112.301 18.51 113.938 20.5606 115.485 22.6113C115.521 22.4674 115.539 22.2156 115.539 21.8558C115.575 21.496 115.593 21.0104 115.593 20.3988V7.71699C115.593 5.63034 115.359 4.33519 114.891 3.83151C114.676 3.5437 114.28 3.29186 113.704 3.076C113.165 2.82417 112.589 2.62629 111.977 2.48239C111.402 2.33848 110.97 2.26653 110.682 2.26653C110.61 2.26653 110.538 2.12262 110.466 1.83481C110.43 1.547 110.412 1.24119 110.412 0.917404C110.412 0.557638 110.448 0.341778 110.52 0.269825C112.175 0.413731 113.596 0.521661 114.783 0.593615C115.971 0.665568 116.924 0.701544 117.644 0.701544C118.255 0.701544 119.029 0.665568 119.964 0.593615C120.899 0.521661 121.781 0.449708 122.608 0.377755C123.472 0.305801 124.047 0.269825 124.335 0.269825C124.479 0.521661 124.551 0.845451 124.551 1.24119C124.551 1.92475 124.461 2.26653 124.281 2.26653C122.339 2.26653 120.846 2.86014 119.802 4.04737C119.299 4.65897 119.047 5.97212 119.047 7.98681V28.4935C119.047 29.1411 119.065 30.0945 119.101 31.3536C119.137 32.6128 119.191 34.1778 119.263 36.0486C119.119 36.1925 118.669 36.2645 117.913 36.2645Z" fill="#D8535E"/>
<path d="M155.797 43.7116C154.07 43.7116 152.325 43.2079 150.562 42.2006C148.584 41.0493 146.731 39.8621 145.004 38.6389C143.277 37.4157 141.568 36.5343 139.877 35.9946C138.582 35.5989 137.251 34.9333 135.884 33.9979C134.517 33.0625 133.168 31.8753 131.836 30.4362C130.505 28.9972 129.408 27.2163 128.545 25.0937C127.717 22.9351 127.303 20.6686 127.303 18.2941C127.303 15.7758 127.753 13.4193 128.652 11.2247C129.552 8.99416 130.775 7.05142 132.322 5.3965C133.905 3.70559 135.74 2.39245 137.826 1.45705C139.913 0.485685 142.144 0 144.518 0C146.893 0 149.123 0.485685 151.21 1.45705C153.296 2.39245 155.131 3.70559 156.714 5.3965C158.297 7.05142 159.538 8.99416 160.438 11.2247C161.337 13.4193 161.787 15.7758 161.787 18.2941C161.787 20.5966 161.427 22.7552 160.708 24.7699C159.988 26.7486 159.035 28.5115 157.847 30.0585C156.66 31.6055 155.347 32.8647 153.908 33.836C152.505 34.8074 151.102 35.437 149.699 35.7248C150.778 36.1925 151.839 36.7321 152.883 37.3438C153.926 37.9554 154.843 38.459 155.635 38.8548C156.247 39.1426 157.074 39.3944 158.117 39.6103C159.161 39.8621 160.348 39.988 161.679 39.988C162.83 39.988 163.766 39.8981 164.485 39.7182C165.205 39.5383 165.636 39.4484 165.78 39.4484C166.212 39.4484 166.428 39.8082 166.428 40.5277V40.7975C164.881 41.625 163.118 42.3085 161.139 42.8482C159.161 43.4238 157.38 43.7116 155.797 43.7116ZM145.382 33.2424C147.18 33.2424 148.673 32.6488 149.861 31.4616C151.084 30.2384 151.983 28.5834 152.559 26.4968C153.171 24.3742 153.476 21.9817 153.476 19.3195C153.476 17.3407 153.314 15.4879 152.991 13.7611C152.703 12.0342 152.217 10.3613 151.534 8.74232C150.85 7.12337 149.843 5.8462 148.512 4.91081C147.18 3.93944 145.579 3.45376 143.709 3.45376C141.838 3.45376 140.309 4.04737 139.122 5.2346C137.934 6.38585 137.053 7.98681 136.477 10.0375C135.902 12.0882 135.614 14.4446 135.614 17.1069C135.614 20.7765 136.315 24.2842 137.719 27.6301C138.438 29.285 139.445 30.6341 140.741 31.6774C142.072 32.7208 143.619 33.2424 145.382 33.2424Z" fill="#D8535E"/>
<path d="M184.722 36.2645C181.808 36.2645 179.254 35.6708 177.059 34.4836C174.864 33.2604 173.156 31.3896 171.932 28.8713C170.745 26.3529 170.152 23.133 170.152 19.2115V7.82492C170.152 5.52241 170.008 4.11933 169.72 3.61565C169.612 3.39979 169.324 3.20192 168.856 3.02204C168.425 2.80618 167.975 2.62629 167.507 2.48239C167.04 2.33848 166.662 2.26653 166.374 2.26653C166.23 2.26653 166.158 1.96073 166.158 1.34912C166.158 0.701544 166.194 0.341778 166.266 0.269825L174.091 0.593615C174.451 0.629591 175.26 0.611603 176.519 0.53965C177.779 0.467696 179.487 0.377755 181.646 0.269825C181.754 0.593615 181.808 0.917404 181.808 1.24119C181.808 1.92475 181.736 2.26653 181.592 2.26653C181.376 2.26653 180.998 2.33848 180.459 2.48239C179.919 2.62629 179.398 2.80618 178.894 3.02204C178.426 3.20192 178.156 3.3818 178.084 3.56169C177.833 4.4611 177.707 5.99011 177.707 8.14871V20.9384C177.707 24.2483 178.444 26.9105 179.919 28.9252C181.43 30.9399 183.463 31.9473 186.017 31.9473C188.679 31.9473 190.856 31.0838 192.547 29.3569C194.274 27.5941 195.137 24.662 195.137 20.5606V7.71699C195.137 5.63034 194.903 4.33519 194.436 3.83151C194.22 3.5437 193.824 3.29186 193.249 3.076C192.709 2.82417 192.133 2.62629 191.522 2.48239C190.946 2.33848 190.514 2.26653 190.226 2.26653C190.155 2.26653 190.083 2.12262 190.011 1.83481C189.975 1.547 189.957 1.24119 189.957 0.917404C189.957 0.557638 189.993 0.341778 190.065 0.269825C191.719 0.413731 193.141 0.521661 194.328 0.593615C195.515 0.665568 196.468 0.701544 197.188 0.701544C197.8 0.701544 198.573 0.665568 199.508 0.593615C200.444 0.521661 201.325 0.449708 202.153 0.377755C203.016 0.305801 203.592 0.269825 203.88 0.269825C204.024 0.521661 204.095 0.845451 204.095 1.24119C204.095 1.92475 204.006 2.26653 203.826 2.26653C201.883 2.26653 200.39 2.86014 199.347 4.04737C198.843 4.65897 198.591 5.97212 198.591 7.98681V20.2908C198.591 23.7806 197.997 26.7127 196.81 29.0871C195.659 31.4616 194.04 33.2604 191.953 34.4836C189.867 35.6708 187.456 36.2645 184.722 36.2645Z" fill="#D8535E"/>
<path d="M206.578 36.2105C206.434 36.0666 206.362 35.7608 206.362 35.2931C206.362 34.5736 206.434 34.2138 206.578 34.2138C206.866 34.2138 207.279 34.1598 207.819 34.0519C208.359 33.944 208.862 33.8 209.33 33.6202C209.798 33.4043 210.068 33.2064 210.14 33.0266C210.355 32.1991 210.463 30.6161 210.463 28.2776V7.87888C210.463 5.86419 210.355 4.4611 210.14 3.66962C210.068 3.45376 209.78 3.2379 209.276 3.02204C208.808 2.7702 208.305 2.57233 207.765 2.42842C207.225 2.24854 206.812 2.1586 206.524 2.1586C206.38 2.1586 206.308 1.83481 206.308 1.18723C206.308 0.611603 206.362 0.269825 206.47 0.161895C207.909 0.233848 209.276 0.305801 210.571 0.377755C211.902 0.413731 213.18 0.43172 214.403 0.43172C215.986 0.43172 218.774 0.377755 222.767 0.269825C224.782 0.233848 226.545 0.21586 228.056 0.21586C229.567 0.179883 230.826 0.161895 231.833 0.161895C231.869 0.341778 232.013 1.09729 232.265 2.42842C232.517 3.75956 232.895 5.66632 233.398 8.14871C233.219 8.32859 232.805 8.41853 232.157 8.41853C231.762 8.41853 231.51 8.29262 231.402 8.04078C230.97 7.10539 230.322 6.27792 229.459 5.55839C228.632 4.80288 227.714 4.20927 226.707 3.77755C225.735 3.30985 224.782 3.076 223.847 3.076H221.796C219.493 3.076 218.324 3.30985 218.288 3.77755C218.216 4.20927 218.144 4.78489 218.072 5.50443C218.036 6.18798 218.018 7.01544 218.018 7.98681V16.2974C218.018 16.5133 218.792 16.6212 220.339 16.6212H223.199C225.466 16.6212 226.689 16.5493 226.869 16.4053C227.049 16.2255 227.192 15.7038 227.3 14.8404C227.372 14.2647 227.48 13.7431 227.624 13.2754C227.66 13.0235 227.93 12.8976 228.434 12.8976C229.045 12.8976 229.441 12.9876 229.621 13.1674V23.3668C229.477 23.5107 229.099 23.5827 228.488 23.5827C228.02 23.5827 227.732 23.4388 227.624 23.151C227.192 21.7479 226.905 20.8844 226.761 20.5606C226.617 20.3088 226.509 20.2009 226.437 20.2369C226.401 20.2369 226.293 20.1649 226.113 20.021C225.609 19.7332 224.206 19.5893 221.904 19.5893C219.314 19.5893 218.018 19.7512 218.018 20.075V28.3856C218.018 30.0765 218.162 31.3536 218.45 32.2171C218.594 32.7927 219.817 33.0805 222.12 33.0805H223.523C225.753 33.0805 227.768 32.6128 229.567 31.6774C230.179 31.3536 230.862 30.742 231.618 29.8426C232.409 28.9432 233.021 27.9359 233.452 26.8206C233.524 26.6047 233.776 26.4968 234.208 26.4968C235.071 26.4968 235.611 26.6047 235.827 26.8206C234.028 31.7854 233.057 34.8794 232.913 36.1026C232.013 36.1026 230.826 36.0846 229.351 36.0486C227.912 36.0486 226.185 36.0306 224.17 35.9946C222.192 35.9586 220.393 35.9227 218.774 35.8867C217.155 35.8147 215.716 35.8147 214.457 35.8867L206.578 36.2105Z" fill="#D8535E"/>
</svg>
