<svg width="40" height="40" viewBox="0 0 40 40" fill="none" xmlns="http://www.w3.org/2000/svg">
<g clip-path="url(#clip0_55_248)">
<path d="M20 3.3335C10.795 3.3335 3.33337 10.7952 3.33337 20.0002C3.33337 28.3185 9.42837 35.2135 17.3967 36.4652V24.8168H13.1634V20.0002H17.3967V16.3285C17.3967 12.1518 19.8834 9.84516 23.6917 9.84516C25.515 9.84516 27.4217 10.1702 27.4217 10.1702V14.2702H25.3217C23.25 14.2702 22.605 15.5552 22.605 16.8735V20.0002H27.2267L26.4884 24.8168H22.605V36.4652C30.5717 35.2152 36.6667 28.3168 36.6667 20.0002C36.6667 10.7952 29.205 3.3335 20 3.3335Z" fill="#D8535E"/>
</g>
<defs>
<clipPath id="clip0_55_248">
<rect width="40" height="40" fill="white"/>
</clipPath>
</defs>
</svg>
