<svg width="40" height="40" viewBox="0 0 40 40" fill="none" xmlns="http://www.w3.org/2000/svg">
<g clip-path="url(#clip0_55_253)">
<path d="M20 3.3335C24.5284 3.3335 25.0934 3.35016 26.87 3.4335C28.645 3.51683 29.8534 3.79516 30.9167 4.2085C32.0167 4.63183 32.9434 5.20516 33.87 6.13016C34.7175 6.96332 35.3733 7.97114 35.7917 9.0835C36.2034 10.1452 36.4834 11.3552 36.5667 13.1302C36.645 14.9068 36.6667 15.4718 36.6667 20.0002C36.6667 24.5285 36.65 25.0935 36.5667 26.8702C36.4834 28.6452 36.2034 29.8535 35.7917 30.9168C35.3745 32.0298 34.7186 33.0379 33.87 33.8702C33.0366 34.7174 32.0289 35.3731 30.9167 35.7918C29.855 36.2035 28.645 36.4835 26.87 36.5668C25.0934 36.6452 24.5284 36.6668 20 36.6668C15.4717 36.6668 14.9067 36.6502 13.13 36.5668C11.355 36.4835 10.1467 36.2035 9.08337 35.7918C7.97058 35.3743 6.96259 34.7184 6.13004 33.8702C5.28238 33.0371 4.62659 32.0293 4.20837 30.9168C3.79504 29.8552 3.51671 28.6452 3.43337 26.8702C3.35504 25.0935 3.33337 24.5285 3.33337 20.0002C3.33337 15.4718 3.35004 14.9068 3.43337 13.1302C3.51671 11.3535 3.79504 10.1468 4.20837 9.0835C4.62543 7.97046 5.28138 6.96236 6.13004 6.13016C6.96283 5.28221 7.97075 4.62638 9.08337 4.2085C10.1467 3.79516 11.3534 3.51683 13.13 3.4335C14.9067 3.35516 15.4717 3.3335 20 3.3335ZM20 11.6668C17.7899 11.6668 15.6703 12.5448 14.1075 14.1076C12.5447 15.6704 11.6667 17.79 11.6667 20.0002C11.6667 22.2103 12.5447 24.3299 14.1075 25.8927C15.6703 27.4555 17.7899 28.3335 20 28.3335C22.2102 28.3335 24.3298 27.4555 25.8926 25.8927C27.4554 24.3299 28.3334 22.2103 28.3334 20.0002C28.3334 17.79 27.4554 15.6704 25.8926 14.1076C24.3298 12.5448 22.2102 11.6668 20 11.6668ZM30.8334 11.2502C30.8334 10.6976 30.6139 10.1677 30.2232 9.77702C29.8325 9.38632 29.3026 9.16683 28.75 9.16683C28.1975 9.16683 27.6676 9.38632 27.2769 9.77702C26.8862 10.1677 26.6667 10.6976 26.6667 11.2502C26.6667 11.8027 26.8862 12.3326 27.2769 12.7233C27.6676 13.114 28.1975 13.3335 28.75 13.3335C29.3026 13.3335 29.8325 13.114 30.2232 12.7233C30.6139 12.3326 30.8334 11.8027 30.8334 11.2502ZM20 15.0002C21.3261 15.0002 22.5979 15.5269 23.5356 16.4646C24.4733 17.4023 25 18.6741 25 20.0002C25 21.3262 24.4733 22.598 23.5356 23.5357C22.5979 24.4734 21.3261 25.0002 20 25.0002C18.674 25.0002 17.4022 24.4734 16.4645 23.5357C15.5268 22.598 15 21.3262 15 20.0002C15 18.6741 15.5268 17.4023 16.4645 16.4646C17.4022 15.5269 18.674 15.0002 20 15.0002Z" fill="#D8535E"/>
</g>
<defs>
<clipPath id="clip0_55_253">
<rect width="40" height="40" fill="white"/>
</clipPath>
</defs>
</svg>
